<svg xmlns="http://www.w3.org/2000/svg" viewBox="0 0 83.82 55"><defs><style>.cls-1{fill:#fff;}.cls-2{fill:#ed2f3c;}</style></defs><g id="Layer_2" data-name="Layer 2"><g id="Arte"><path class="cls-1" d="M34.92,39.28h-.25c-1.58,0-3.16.08-4.73,0-4.74-.29-8.53-2.26-11-6.4a10.24,10.24,0,0,1-1.42-6.12,10.81,10.81,0,0,1,2.87-6.63A13.19,13.19,0,0,1,27.79,16a14.26,14.26,0,0,1,2.69-.26H43.65V55H26a24.2,24.2,0,0,1-9.27-1.86,25.87,25.87,0,0,1-10.67-8A28,28,0,0,1,.53,33,28.3,28.3,0,0,1,0,26.26,27.86,27.86,0,0,1,5.15,11.13,25.87,25.87,0,0,1,19.86.81,20.2,20.2,0,0,1,23.62.13C24.45.07,25.27,0,26.1,0H43.66V12.2H34.94V7.86h-.17c-1.46,0-2.92,0-4.39,0a23.24,23.24,0,0,0-12.47,3.65,19.7,19.7,0,0,0-7.82,9.24,17.15,17.15,0,0,0-1.26,5.32,18,18,0,0,0,5,14,21.63,21.63,0,0,0,11,6.35,24.81,24.81,0,0,0,6.07.7h4Z"/><path class="cls-2" d="M55.24,2.78V6.46H61V9.24H55.24v3.68h8.61v2.79H52.41V0H63.85V2.78Z"/><path class="cls-2" d="M78.8,1.73V4.49H76V3.19a.43.43,0,0,0-.45-.41H70.63a.43.43,0,0,0-.45.41V6.06a.43.43,0,0,0,.45.4h6.28A1.83,1.83,0,0,1,78.8,8.19V14a1.83,1.83,0,0,1-1.89,1.73H69.24A1.83,1.83,0,0,1,67.35,14V11.22h2.83v1.3a.42.42,0,0,0,.45.4h4.89a.42.42,0,0,0,.45-.4V9.65a.43.43,0,0,0-.45-.41H69.24a1.83,1.83,0,0,1-1.89-1.72V1.73A1.83,1.83,0,0,1,69.24,0h7.67A1.83,1.83,0,0,1,78.8,1.73Z"/><path class="cls-2" d="M62.75,22.43h-4.3V35.36H55.62V22.43H51.31V19.65H62.75Z"/><path class="cls-2" d="M78.84,19.65v14A1.83,1.83,0,0,1,77,35.36H69.24a1.83,1.83,0,0,1-1.89-1.73v-14h2.83V32.17a.43.43,0,0,0,.45.41h4.94a.43.43,0,0,0,.44-.41V19.65Z"/><path class="cls-2" d="M63.85,41V53.27A1.83,1.83,0,0,1,62,55H52.41V39.29H62A1.83,1.83,0,0,1,63.85,41Zm-3.27,1.06H55.24V52.22h5.34a.43.43,0,0,0,.45-.41V42.48A.43.43,0,0,0,60.58,42.08Z"/><path class="cls-2" d="M66.68,39.29h2.83V55H66.68Z"/><path class="cls-2" d="M73.93,16.82,71.1,19.65h4l2.82-2.83Z"/><path class="cls-2" d="M83.82,41V53.27A1.83,1.83,0,0,1,81.94,55H74.22a1.83,1.83,0,0,1-1.89-1.73V41a1.83,1.83,0,0,1,1.89-1.73h7.72A1.83,1.83,0,0,1,83.82,41Zm-3.27,1.06H75.61a.42.42,0,0,0-.45.4v9.33a.43.43,0,0,0,.45.41h4.94a.43.43,0,0,0,.45-.41V42.48A.43.43,0,0,0,80.55,42.08Z"/></g></g></svg>